#!OML:ASF E:\acrobat2\Project_11_07_03\Capture day 1\Session 1\Acrobat.ASF
:FULLY-SPECIFIED
:DEGREES
68
root 12.944 20.502 9.78868 3.44225 -1.91117 -0.088702
lowerback -7.48443 0.168853 0.45161
upperback 0.971898 0.261996 -1.52678
thorax 5.22229 0.165919 -1.81098
lowerneck 0.288451 -5.85279 -2.8589
upperneck 5.3646 -8.07031 5.66409
head 2.03108 -3.97957 2.14275
rclavicle -4.72114e-016 1.07344e-014
rhumerus -35.4994 -9.38567 -81.4881
rradius 30.4117
rwrist 3.98863
rhand -4.93277 -38.517
rfingers 7.12502
rthumb 20.858 -67.4158
lclavicle -4.72114e-016 1.07344e-014
lhumerus -30.3689 -0.680179 82.6335
lradius 21.1061
lwrist 3.02957
lhand -2.71246 -13.7664
lfingers 7.12502
lthumb 22.9899 14.8826
rfemur -8.52153 11.4488 17.1319
rtibia 24.1598
rfoot -35.2165 -14.0414
rtoes 8.87606
lfemur -17.574 -2.83561 -14.2338
ltibia 38.5754
lfoot -37.8983 -12.229
ltoes 0.742863
69
root 12.9451 20.5036 9.78549 3.45025 -1.78771 -0.131644
lowerback -7.44822 0.14022 0.43225
upperback 1.00896 0.224107 -1.49245
thorax 5.23892 0.146397 -1.76889
lowerneck 0.284299 -5.78591 -2.88647
upperneck 5.25591 -7.97738 5.71031
head 1.99555 -3.93415 2.16612
rclavicle 1.49089e-014 -1.35174e-014
rhumerus -35.5766 -9.54223 -81.4452
rradius 30.3926
rwrist 4.14028
rhand -4.89475 -38.5656
rfingers 7.12502
rthumb 20.8945 -67.4603
lclavicle 1.49089e-014 -1.35174e-014
lhumerus -30.3335 -0.77499 82.6687
lradius 21.1197
lwrist 3.27358
lhand -2.78603 -13.7999
lfingers 7.12502
lthumb 22.9193 14.8578
rfemur -8.52587 11.2803 17.1782
rtibia 24.1481
rfoot -35.2094 -14.1178
rtoes 8.43915
lfemur -17.624 -2.83128 -14.1801
ltibia 38.5807
lfoot -37.8931 -12.2763
ltoes 0.501526
70
root 12.9457 20.5048 9.78352 3.46188 -1.66351 -0.183068
lowerback -7.42797 0.107286 0.412638
upperback 1.04267 0.180205 -1.45235
thorax 5.26094 0.123802 -1.72136
lowerneck 0.274126 -5.71965 -2.90815
upperneck 5.15645 -7.88561 5.755
head 1.96377 -3.88902 2.18762
rclavicle -3.35449e-015 -1.98785e-015
rhumerus -35.6517 -9.66065 -81.4044
rradius 30.3369
rwrist 4.31218
rhand -4.84886 -38.5153
rfingers 7.12502
rthumb 20.9386 -67.4052
lclavicle -3.35449e-015 -1.98785e-015
lhumerus -30.2965 -0.92323 82.722
lradius 21.1398
lwrist 3.58799
lhand -2.83959 -13.8001
lfingers 7.12502
lthumb 22.8679 14.8641
rfemur -8.52753 11.1285 17.2401
rtibia 24.14
rfoot -35.2129 -14.261
rtoes 7.79683
lfemur -17.673 -2.7852 -14.1133
ltibia 38.5864
lfoot -37.8755 -12.3457
ltoes 0.220249
71
root 12.9457 20.5053 9.78316 3.47376 -1.55581 -0.235313
lowerback -7.42544 0.0812896 0.387046
upperback 1.07096 0.146045 -1.41118
thorax 5.28771 0.105807 -1.66824
lowerneck 0.269203 -5.66065 -2.91696
upperneck 5.07289 -7.80406 5.79045
head 1.93562 -3.84881 2.20355
rclavicle 5.91384e-015 -6.75868e-015
rhumerus -35.722 -9.74459 -81.3596
rradius 30.2351
rwrist 4.48697
rhand -4.75112 -38.3911
rfingers 7.12502
rthumb 21.0325 -67.2706
lclavicle 5.91384e-015 -6.75868e-015
lhumerus -30.2656 -1.1086 82.7808
lradius 21.1738
lwrist 3.88086
lhand -2.87633 -13.7548
lfingers 7.12502
lthumb 22.8326 14.9137
rfemur -8.52765 10.9916 17.3072
rtibia 24.1366
rfoot -35.2016 -14.4638
rtoes 6.95684
lfemur -17.7112 -2.71701 -14.0451
ltibia 38.5908
lfoot -37.8637 -12.4207
ltoes -0.0626631
72
root 12.9448 20.5052 9.78333 3.4991 -1.44613 -0.276404
lowerback -7.4366 0.0601289 0.336268
upperback 1.08485 0.120603 -1.37067
thorax 5.30748 0.0912442 -1.60056
lowerneck 0.261639 -5.61497 -2.91496
upperneck 5.02525 -7.74129 5.80893
head 1.91917 -3.81758 2.21109
rclavicle -5.39203e-015 -8.74653e-015
rhumerus -35.7892 -9.80313 -81.3058
rradius 30.0849
rwrist 4.64039
rhand -4.61559 -38.2137
rfingers 7.12502
rthumb 21.1627 -67.0786
lclavicle -5.39203e-015 -8.74653e-015
lhumerus -30.2525 -1.33625 82.8514
lradius 21.2377
lwrist 4.1233
lhand -2.91666 -13.6665
lfingers 7.12502
lthumb 22.7939 15.0068
rfemur -8.5422 10.8825 17.3669
rtibia 24.1399
rfoot -35.1957 -14.7043
rtoes 6.10729
lfemur -17.7595 -2.63248 -13.9847
ltibia 38.5907
lfoot -37.8463 -12.5146
ltoes -0.302898
73
root 12.9428 20.5049 9.78362 3.54093 -1.33676 -0.302424
lowerback -7.45712 0.0449277 0.253571
upperback 1.08339 0.106074 -1.33197
thorax 5.3168 0.0809984 -1.51547
lowerneck 0.245493 -5.58156 -2.91088
upperneck 5.0168 -7.6962 5.81618
head 1.91723 -3.7947 2.21352
rclavicle 1.33931e-014 -5.56597e-015
rhumerus -35.852 -9.85813 -81.2418
rradius 29.894
rwrist 4.77705
rhand -4.46091 -38.0476
rfingers 7.12502
rthumb 21.3113 -66.8959
lclavicle 1.33931e-014 -5.56597e-015
lhumerus -30.2646 -1.61401 82.9405
lradius 21.3408
lwrist 4.3727
lhand -2.97977 -13.5726
lfingers 7.12502
lthumb 22.7334 15.1081
rfemur -8.57597 10.8432 17.4156
rtibia 24.153
rfoot -35.2328 -14.9437
rtoes 5.51066
lfemur -17.8213 -2.55502 -13.9361
ltibia 38.5833
lfoot -37.8289 -12.6066
ltoes -0.486518
74
root 12.9398 20.5044 9.78365 3.59896 -1.22513 -0.31356
lowerback -7.48194 0.0304272 0.142004
upperback 1.07023 0.0952531 -1.29608
thorax 5.31645 0.0716659 -1.41659
lowerneck 0.218323 -5.55925 -2.9223
upperneck 5.03377 -7.66718 5.82951
head 1.92737 -3.77953 2.21975
rclavicle 1.61513e-015 -3.57812e-015
rhumerus -35.9075 -9.92175 -81.1725
rradius 29.6801
rwrist 4.91722
rhand -4.28828 -37.941
rfingers 7.12502
rthumb 21.4771 -66.7704
lclavicle 1.61513e-015 -3.57812e-015
lhumerus -30.2921 -1.9092 83.0345
lradius 21.471
lwrist 4.64841
lhand -3.05469 -13.5169
lfingers 7.12502
lthumb 22.6615 15.1726
rfemur -8.62946 10.8821 17.4529
rtibia 24.1772
rfoot -35.3237 -15.1574
rtoes 5.27464
lfemur -17.8968 -2.50237 -13.8996
ltibia 38.5681
lfoot -37.8072 -12.6896
ltoes -0.607162
75
root 12.9364 20.5034 9.78342 3.66565 -1.10264 -0.311327
lowerback -7.50515 0.0100507 0.0116197
upperback 1.05168 0.0785252 -1.2639
thorax 5.30943 0.0588832 -1.31167
lowerneck 0.169402 -5.54714 -2.95995
upperneck 5.07856 -7.65339 5.85913
head 1.95332 -3.77147 2.23477
rclavicle 7.0817e-015 -1.27222e-014
rhumerus -35.9577 -9.98998 -81.1085
rradius 29.4581
rwrist 5.06575
rhand -4.15225 -37.8629
rfingers 7.12502
rthumb 21.6078 -66.6774
lclavicle 7.0817e-015 -1.27222e-014
lhumerus -30.317 -2.15399 83.1064
lradius 21.606
lwrist 4.89672
lhand -3.10895 -13.5109
lfingers 7.12502
lthumb 22.6094 15.185
rfemur -8.6919 10.9405 17.478
rtibia 24.2098
rfoot -35.4282 -15.3465
rtoes 5.22002
lfemur -17.9792 -2.48429 -13.8771
ltibia 38.5479
lfoot -37.7788 -12.7584
ltoes -0.663862
76
root 12.9336 20.5017 9.78331 3.72519 -0.975864 -0.299673
lowerback -7.51892 -0.0128708 -0.120399
upperback 1.03355 0.0589263 -1.23936
thorax 5.29758 0.0447738 -1.21412
lowerneck 0.107674 -5.54367 -3.0247
upperneck 5.14806 -7.65337 5.91774
head 1.99316 -3.76977 2.26326
rclavicle -1.44864e-014 -1.19271e-015
rhumerus -36.0113 -10.0549 -81.0631
rradius 29.2368
rwrist 5.20998
rhand -4.10817 -37.8095
rfingers 7.12502
rthumb 21.6501 -66.619
lclavicle -1.44864e-014 -1.19271e-015
lhumerus -30.3303 -2.30061 83.1344
lradius 21.7299
lwrist 5.06193
lhand -3.12733 -13.5459
lfingers 7.12502
lthumb 22.5918 15.1522
rfemur -8.74565 10.9744 17.493
rtibia 24.2472
rfoot -35.5067 -15.5264
rtoes 5.13521
lfemur -18.0509 -2.50144 -13.8692
ltibia 38.5261
lfoot -37.7488 -12.8012
ltoes -0.674121
77
root 12.932 20.4992 9.78402 3.76356 -0.844846 -0.287853
lowerback -7.5199 -0.0317206 -0.227221
upperback 1.01987 0.0429991 -1.22724
thorax 5.28337 0.0334647 -1.14324
lowerneck 0.0522265 -5.55086 -3.10314
upperneck 5.22891 -7.66985 6.00872
head 2.03889 -3.77594 2.3046
rclavicle 1.33434e-014 1.19271e-015
rhumerus -36.0877 -10.1101 -81.0449
rradius 29.0311
rwrist 5.33626
rhand -4.17107 -37.8021
rfingers 7.12502
rthumb 21.5897 -66.6186
lclavicle 1.33434e-014 1.19271e-015
lhumerus -30.3335 -2.35081 83.1151
lradius 21.8349
lwrist 5.10705
lhand -3.12377 -13.6159
lfingers 7.12502
lthumb 22.5952 15.0817
rfemur -8.77418 10.9525 17.5054
rtibia 24.2902
rfoot -35.5472 -15.6928
rtoes 4.913
lfemur -18.0962 -2.54216 -13.8702
ltibia 38.5041
lfoot -37.7114 -12.8222
ltoes -0.6701
78
root 12.932 20.4963 9.78597 3.77925 -0.694191 -0.266745
lowerback -7.51009 -0.0474463 -0.310367
upperback 1.00903 0.029851 -1.23267
thorax 5.26618 0.0245302 -1.10359
lowerneck 0.0144524 -5.57044 -3.16955
upperneck 5.31453 -7.70432 6.11074
head 2.08415 -3.79085 2.34753
rclavicle -1.07592e-014 -1.23246e-014
rhumerus -36.2023 -10.1632 -81.0492
rradius 28.8509
rwrist 5.4403
rhand -4.32768 -37.8461
rfingers 7.12502
rthumb 21.4393 -66.6798
lclavicle -1.07592e-014 -1.23246e-014
lhumerus -30.3335 -2.34443 83.0623
lradius 21.9239
lwrist 5.04229
lhand -3.11904 -13.6922
lfingers 7.12502
lthumb 22.5997 15.0048
rfemur -8.77377 10.8655 17.5028
rtibia 24.342
rfoot -35.5772 -15.8313
rtoes 4.58766
lfemur -18.1159 -2.60433 -13.8906
ltibia 38.4792
lfoot -37.6542 -12.8346
ltoes -0.653275
79
root 12.9339 20.4931 9.78975 3.76815 -0.536621 -0.208777
lowerback -7.49301 -0.0556129 -0.390758
upperback 1.0016 0.0278529 -1.26495
thorax 5.24872 0.0216239 -1.09208
lowerneck 0.0137174 -5.60161 -3.20882
upperneck 5.38856 -7.75454 6.20579
head 2.11828 -3.81394 2.38405
rclavicle -1.76421e-015 -1.55052e-014
rhumerus -36.3522 -10.2361 -81.0615
rradius 28.6857
rwrist 5.53038
rhand -4.51639 -37.9651
rfingers 7.12502
rthumb 21.258 -66.8194
lclavicle -1.76421e-015 -1.55052e-014
lhumerus -30.3326 -2.34656 83.0001
lradius 22.0035
lwrist 4.9224
lhand -3.13424 -13.7266
lfingers 7.12502
lthumb 22.5851 14.9722
rfemur -8.74342 10.7195 17.4497
rtibia 24.4049
rfoot -35.6113 -15.9128
rtoes 4.22322
lfemur -18.0997 -2.6977 -13.9645
ltibia 38.4482
lfoot -37.5896 -12.8301
ltoes -0.598359
80
root 12.9373 20.4901 9.79467 3.74492 -0.358968 -0.0965849
lowerback -7.47271 -0.061997 -0.491789
upperback 0.992235 0.0314891 -1.3254
thorax 5.22755 0.021334 -1.09758
lowerneck 0.0524469 -5.64065 -3.21494
upperneck 5.44435 -7.81458 6.28228
head 2.13738 -3.84251 2.4095
rclavicle -7.97623e-015 9.54166e-015
rhumerus -36.5289 -10.3483 -81.0648
rradius 28.5209
rwrist 5.63066
rhand -4.6884 -38.1574
rfingers 7.12502
rthumb 21.0928 -67.0302
lclavicle -7.97623e-015 9.54166e-015
lhumerus -30.323 -2.41713 82.9554
lradius 22.0723
lwrist 4.80276
lhand -3.18533 -13.7012
lfingers 7.12502
lthumb 22.5361 15.0036
rfemur -8.69946 10.504 17.3251
rtibia 24.4775
rfoot -35.656 -15.921
rtoes 3.891
lfemur -18.0677 -2.80708 -14.1075
ltibia 38.4095
lfoot -37.5064 -12.8264
ltoes -0.507409
81
root 12.9414 20.4875 9.80008 3.72107 -0.167962 0.0459883
lowerback -7.45108 -0.068302 -0.608037
upperback 0.978726 0.0371427 -1.39881
thorax 5.20134 0.0218053 -1.10773
lowerneck 0.113539 -5.67899 -3.18472
upperneck 5.48629 -7.8721 6.32667
head 2.14429 -3.87024 2.41862
rclavicle 4.29872e-015 2.78299e-015
rhumerus -36.7126 -10.5082 -81.0457
rradius 28.3406
rwrist 5.7662
rhand -4.82766 -38.3742
rfingers 7.12502
rthumb 20.959 -67.2618
lclavicle 4.29872e-015 2.78299e-015
lhumerus -30.3032 -2.56434 82.9397
lradius 22.1375
lwrist 4.72389
lhand -3.25475 -13.6189
lfingers 7.12502
lthumb 22.4695 15.094
rfemur -8.65469 10.2571 17.1582
rtibia 24.5538
rfoot -35.7278 -15.858
rtoes 3.72972
lfemur -18.0358 -2.91822 -14.288
ltibia 38.3669
lfoot -37.4042 -12.8162
ltoes -0.421164
